<svg width="256" height="256" viewBox="0 0 256 256" fill="none" xmlns="http://www.w3.org/2000/svg">
<path d="M169.966 215.653C168.256 214.468 164.546 214.264 162.462 215.227C161.954 215.453 161.443 215.672 160.93 215.885C158.071 217.089 154.828 218.441 153.866 221.016C153.645 221.67 153.566 222.363 153.634 223.049C153.702 223.735 153.914 224.4 154.258 224.999L154.426 225.351L154.781 225.527C154.936 225.605 155.095 225.673 155.258 225.731C157.445 227.111 158.94 228 160.089 228C160.78 228 161.341 227.667 161.836 226.926C162.089 226.555 162.285 226.259 163.574 226.259C164.677 226.259 165.471 225.981 166.013 225.425C166.789 224.628 166.751 223.573 166.714 222.72C166.677 221.674 166.751 221.544 166.966 221.442C169.639 220.238 170.928 219.062 171.05 217.737C171.096 217.274 171.012 216.385 169.966 215.653ZM244.514 55.3387C239.468 51.7171 232.096 58.2564 229.909 60.8406C228.302 62.6838 227.648 62.9524 227.48 62.9987C227.227 62.7857 226.853 61.9058 226.601 61.313C225.386 58.4787 223.144 53.2268 214.127 55.7555C213.005 55.1997 211.239 53.0601 211.295 51.9579C211.464 46.7987 208.997 42.9733 204.353 41.1579C201.316 39.9723 197.475 39.6851 193.551 40.352C189.906 40.9726 186.851 42.3249 185.393 43.9829C184.3 45.2241 184.085 46.669 184.804 47.938C185.402 49.031 185.262 51.9394 184.449 55.0052C183.515 58.562 182.169 60.7757 181.338 61.313C174.685 65.4625 171.648 68.9174 172.059 71.8722C172.292 73.5394 173.647 74.8547 175.75 75.4753C176.058 75.5586 178.74 76.2996 179.768 75.1048C181.076 73.632 182.31 72.9559 183.207 73.1967C184.16 73.4468 184.823 74.6787 185.057 75.7809C185.29 76.8739 185.075 77.5778 184.945 77.7075C179.151 78.1984 173.61 83.2464 169.938 86.5994C169.013 87.4331 167.985 88.3778 167.415 88.7761C164.911 86.7384 162.93 86.0993 161.369 86.8218C158.725 88.0351 158.781 92.5645 158.809 95.5655C158.818 96.1213 158.827 96.8067 158.799 97.1123C157.286 98.8074 143.195 105.3 136.364 104.819C135.476 104.763 134.355 104.541 134.009 103.828C131.019 97.7607 125.048 95.723 121.955 96.2602C121.482 96.3188 121.026 96.4722 120.615 96.7111C120.204 96.9499 119.846 97.2692 119.563 97.6496C119.318 97.5231 119.078 97.3871 118.843 97.242L118.61 97.1031L118.526 97.066C113.713 95.1209 111.929 94.7967 111.144 94.6856C110.751 94.0557 109.873 92.6478 107.004 89.443C100.604 82.1998 99.9214 81.7737 98.0619 82.1442C97.5947 82.2368 96.9873 82.3665 95.1558 81.5607L94.9316 81.4588H94.6793C94.2892 81.4502 93.9064 81.3521 93.5611 81.1721C93.2157 80.9921 92.9172 80.7351 92.689 80.4214C92.4206 80.0763 92.2369 79.674 92.1526 79.2463C92.0683 78.8187 92.0855 78.3775 92.2031 77.9576C94.2588 70.5291 90.9136 68.3432 88.699 66.8982C87.559 66.1572 87.1291 65.8238 87.1385 65.2958C87.2693 61.2667 85.0734 59.127 82.9803 58.8399C81.2142 58.5898 79.7379 59.6272 79.2893 61.3963C78.8408 63.0636 78.3269 63.0636 77.1962 63.0265C76.43 62.9987 75.3741 62.9709 74.5612 63.7583C73.851 64.4437 73.5333 65.5181 73.5333 67.278C73.5333 67.9449 73.4305 69.1305 72.7484 69.4732C72.1877 69.7511 71.3841 69.4824 71.1599 69.3435C69.0387 66.8149 66.9363 67.0742 65.8617 67.454C63.1332 68.4173 61.3858 72.0204 61.3858 74.0766C61.3858 75.0399 61.1989 75.7439 60.8718 75.9384C60.7317 76.031 60.1523 76.244 58.6012 75.4753L58.5638 75.4567C55.3868 74.0025 53.2937 73.8173 51.9761 74.8825C50.1353 76.3644 50.8268 79.3933 51.4435 82.0794C51.6024 82.7463 51.8173 83.6818 51.864 84.2375C49.2663 84.7562 49.2289 87.5442 49.2102 88.7761C49.2102 88.9892 49.2009 89.2578 49.1822 89.406C48.6963 90.0266 48.2291 89.9988 46.8462 89.6561C45.3324 89.2856 42.7908 88.6557 41.249 92.0921C41.1555 92.2773 41.0901 92.3422 41.0994 92.3422C40.8191 92.4255 39.8006 91.8698 39.324 91.6012C38.1747 90.9806 36.8759 90.2766 35.6518 90.7953C34.9229 91.101 34.4183 91.7772 34.1567 92.759C33.9502 92.4159 33.7539 92.0668 33.568 91.7123C32.97 90.6101 32.5401 89.8135 31.6337 89.8135H31.6057C31.3621 89.8178 31.1246 89.8895 30.9199 90.0204C30.7152 90.1513 30.5514 90.3363 30.447 90.5545L30.4377 90.5916L30.1013 91.3048C29.6266 91.2737 29.1521 91.3696 28.7277 91.5826C28.0527 91.9316 27.4992 92.4738 27.1392 93.1387C25.9338 92.0736 24.8311 91.7216 23.8313 92.1199C22.1213 92.8146 21.8316 95.408 21.7849 96.5936L21 97.9089V98.2331C21 100.225 22.2802 101.623 23.4202 102.864C25.0554 104.643 25.7188 105.513 24.2424 107.375C19.4489 113.488 24.9339 118.962 29.3351 123.371C33.5587 127.586 35.3527 129.781 33.6054 131.745C28.7464 137.237 26.9056 141.424 27.9521 144.527C29.2136 148.241 34.1193 149.241 37.7075 149.973C38.9409 150.223 40.6322 150.566 41.006 150.872C49.5279 164.339 52.6863 165.015 57.4799 166.034C59.5263 166.47 61.8437 166.96 65.1609 168.767L65.3851 168.887L65.4692 169.035C65.8617 169.823 66.5905 171.295 69.3377 171.851C70.459 172.12 71.3935 171.369 72.3746 170.573C74.2434 169.082 75.5049 168.294 77.4392 170.017C80.3265 172.564 79.9715 173.861 79.7472 174.722C79.6164 175.213 79.4108 175.954 79.9341 176.621C80.6349 177.547 82.0085 177.64 87.5496 177.64C89.7642 177.64 91.3527 176.047 92.7544 174.648C93.9037 173.5 94.9876 172.407 96.1463 172.435C97.0808 172.462 98.2208 173.194 99.5289 174.63L99.5663 174.676C100.333 175.436 101.295 174.945 102.398 174.37C104.463 173.305 106.416 172.453 107.612 173.759C108.359 174.593 108.696 175.519 108.63 176.612C108.471 179.094 106.257 182.318 102.388 185.689C102.145 185.911 101.902 186.115 101.809 186.458C101.08 188.505 101.015 190.015 101.613 191.2C102.37 192.729 103.986 193.229 105.416 193.673C107.714 194.377 108.911 194.877 108.733 197.489C108.668 198.305 109.097 199.203 110.069 200.305C112.517 203.084 119.058 207.53 120.834 207.632H120.881C123.805 207.669 125.179 207.502 125.627 206.409C126.039 205.39 125.207 204.631 124.543 204.02C124.263 203.76 123.6 203.149 123.562 202.889C123.525 202.241 123.637 201.834 123.899 201.685C125.254 200.889 130.094 202.982 133.804 205.363L134.103 205.548H134.448C134.785 205.548 135.13 205.548 137.98 203.686C139.382 202.769 140.13 202.223 140.541 201.889C143.886 201.945 144.54 202.695 144.54 204.029C144.54 206.317 145.091 207.845 146.222 208.706C147.876 209.947 150.137 209.336 152.128 208.79C153.866 208.308 155.118 208.021 155.407 208.586C157.445 212.439 159.08 214.106 160.874 214.143H160.939C162.948 214.143 164.191 212.032 165.396 209.975C166.499 208.104 167.751 205.992 169.274 205.9C174.544 205.576 175.731 204.066 175.955 201.732C175.965 201.583 175.983 201.37 176.012 201.269C176.174 201.214 176.344 201.182 176.516 201.176C188.85 200.185 192.429 196.563 198.942 189.996C200.092 188.829 201.4 187.514 202.848 186.106C205.754 183.309 207.175 177.455 206.287 175.862C206.548 174.687 207.072 173.586 207.819 172.638L207.866 172.583C211.099 168.609 209.389 165.108 208.258 162.783C207.399 161.032 207.231 160.467 207.679 160.041C209.417 158.411 208.501 154.123 206.212 146.796L205.792 145.425C205.521 144.573 204.614 143.702 203.241 142.387C200.82 140.072 197.167 136.57 197.391 132.847C197.531 130.67 198.998 128.521 201.764 126.456C205.53 123.659 206.679 122.186 206.156 120.824C205.502 119.166 203.1 119.389 199.11 119.74C196.083 120.018 191.514 120.417 190.233 119.25C190.075 119.111 189.916 118.907 189.916 118.472C189.916 113.322 192.7 109.996 195.307 108.607C196.597 107.922 197.438 107.922 197.671 108.014C197.671 108.079 197.671 108.227 197.578 108.477C196.924 110.256 194.962 115.646 198.073 116.98C199.269 117.49 201.568 117.656 207.754 113.238C210.183 111.506 213.865 108.496 214.164 107.922C215.668 104.958 215.696 104.254 215.566 103.531C215.706 103.04 216.752 101.336 218.668 98.4369C221.35 94.3892 225.77 92.3422 229.003 90.8417C231.871 89.5171 234.142 88.4612 234.086 86.4142C233.806 79.3655 234.404 77.5964 234.665 77.161C234.852 77.2536 235.132 77.4296 235.319 77.55C235.973 77.9761 236.871 78.5689 237.814 78.0502C238.786 77.5315 238.926 76.2533 238.926 74.9473C238.926 65.6385 240.917 63.6842 242.514 62.1003C243.729 60.8962 245 59.655 245 56.2835V55.6907L244.514 55.3387Z" fill="#DADEE6"/>
<path fill-rule="evenodd" clip-rule="evenodd" d="M208.242 196.73C208.37 195.389 208.545 194.211 208.627 192.788H208.662C208.662 191.073 209.537 190.735 209.537 189.277H209.583C209.583 187.749 211.1 184.95 212.359 183.842C212.546 183.585 214.237 183.282 214.657 183.41V183.469C217.713 183.9 215.753 185.696 215.753 187.026H215.707C215.707 188.915 216.453 191.645 215.952 193.371C215.952 194.117 215.229 194.736 215.229 195.295C214.809 195.914 213.362 196.112 213.362 197.162H213.316C212.628 198.993 213.491 200.194 211.928 202.014H211.881V201.967H211.823C211.823 201.407 210.633 200.789 210.54 199.996H210.493C209.385 198.678 208.685 198.305 208.242 196.73Z" fill="#DADEE6"/>
</svg>
