<svg width="256" height="256" viewBox="0 0 256 256" fill="none" xmlns="http://www.w3.org/2000/svg">
<path d="M165.966 215.653C164.256 214.468 160.546 214.264 158.462 215.227C157.954 215.453 157.443 215.672 156.93 215.885C154.071 217.089 150.828 218.441 149.866 221.016C149.645 221.67 149.566 222.363 149.634 223.049C149.702 223.735 149.914 224.4 150.258 224.999L150.426 225.351L150.781 225.527C150.936 225.605 151.095 225.673 151.258 225.731C153.445 227.111 154.94 228 156.089 228C156.78 228 157.341 227.667 157.836 226.926C158.089 226.555 158.285 226.259 159.574 226.259C160.677 226.259 161.471 225.981 162.013 225.425C162.789 224.628 162.751 223.573 162.714 222.72C162.677 221.674 162.751 221.544 162.966 221.442C165.639 220.238 166.928 219.062 167.05 217.737C167.096 217.274 167.012 216.385 165.966 215.653ZM240.514 55.3387C235.468 51.7171 228.096 58.2564 225.909 60.8406C224.302 62.6838 223.648 62.9524 223.48 62.9987C223.227 62.7857 222.853 61.9058 222.601 61.313C221.386 58.4787 219.144 53.2268 210.127 55.7555C209.005 55.1997 207.239 53.0601 207.295 51.9579C207.464 46.7987 204.997 42.9733 200.353 41.1579C197.316 39.9723 193.475 39.6851 189.551 40.352C185.906 40.9726 182.851 42.3249 181.393 43.9829C180.3 45.2241 180.085 46.669 180.804 47.938C181.402 49.031 181.262 51.9394 180.449 55.0052C179.515 58.562 178.169 60.7757 177.338 61.313C170.685 65.4625 167.648 68.9174 168.059 71.8722C168.292 73.5394 169.647 74.8547 171.75 75.4753C172.058 75.5586 174.74 76.2996 175.768 75.1048C177.076 73.632 178.31 72.9559 179.207 73.1967C180.16 73.4468 180.823 74.6787 181.057 75.7809C181.29 76.8739 181.075 77.5778 180.945 77.7075C175.151 78.1984 169.61 83.2464 165.938 86.5994C165.013 87.4331 163.985 88.3778 163.415 88.7761C160.911 86.7384 158.93 86.0993 157.369 86.8218C154.725 88.0351 154.781 92.5645 154.809 95.5655C154.818 96.1213 154.827 96.8067 154.799 97.1123C153.286 98.8074 139.195 105.3 132.364 104.819C131.476 104.763 130.355 104.541 130.009 103.828C127.019 97.7607 121.048 95.723 117.955 96.2602C117.482 96.3188 117.026 96.4722 116.615 96.7111C116.204 96.9499 115.846 97.2692 115.563 97.6496C115.318 97.5231 115.078 97.3871 114.843 97.242L114.61 97.1031L114.526 97.066C109.713 95.1209 107.929 94.7967 107.144 94.6856C106.751 94.0557 105.873 92.6478 103.004 89.443C96.6035 82.1998 95.9214 81.7737 94.0619 82.1442C93.5947 82.2368 92.9873 82.3665 91.1558 81.5607L90.9316 81.4588H90.6793C90.2892 81.4502 89.9064 81.3521 89.5611 81.1721C89.2157 80.9921 88.9172 80.7351 88.689 80.4214C88.4206 80.0763 88.2369 79.674 88.1526 79.2463C88.0683 78.8187 88.0855 78.3775 88.2031 77.9576C90.2588 70.5291 86.9136 68.3432 84.699 66.8982C83.559 66.1572 83.1291 65.8238 83.1385 65.2958C83.2693 61.2667 81.0734 59.127 78.9803 58.8399C77.2142 58.5898 75.7379 59.6272 75.2893 61.3963C74.8408 63.0636 74.3269 63.0636 73.1962 63.0265C72.43 62.9987 71.3741 62.9709 70.5612 63.7583C69.851 64.4437 69.5333 65.5181 69.5333 67.278C69.5333 67.9449 69.4305 69.1305 68.7484 69.4732C68.1877 69.7511 67.3841 69.4824 67.1599 69.3435C65.0387 66.8149 62.9363 67.0742 61.8617 67.454C59.1332 68.4173 57.3858 72.0204 57.3858 74.0766C57.3858 75.0399 57.1989 75.7439 56.8718 75.9384C56.7317 76.031 56.1523 76.244 54.6012 75.4753L54.5638 75.4567C51.3868 74.0025 49.2937 73.8173 47.9761 74.8825C46.1353 76.3644 46.8268 79.3933 47.4435 82.0794C47.6024 82.7463 47.8173 83.6818 47.864 84.2375C45.2663 84.7562 45.2289 87.5442 45.2102 88.7761C45.2102 88.9892 45.2009 89.2578 45.1822 89.406C44.6963 90.0266 44.2291 89.9988 42.8462 89.6561C41.3324 89.2856 38.7908 88.6557 37.249 92.0921C37.1555 92.2773 37.0901 92.3422 37.0994 92.3422C36.8191 92.4255 35.8006 91.8698 35.324 91.6012C34.1747 90.9806 32.8759 90.2766 31.6518 90.7953C30.9229 91.101 30.4183 91.7772 30.1567 92.759C29.9502 92.4159 29.7539 92.0668 29.568 91.7123C28.97 90.6101 28.5401 89.8135 27.6337 89.8135H27.6057C27.3621 89.8178 27.1246 89.8895 26.9199 90.0204C26.7152 90.1513 26.5514 90.3363 26.447 90.5545L26.4377 90.5916L26.1013 91.3048C25.6266 91.2737 25.1521 91.3696 24.7277 91.5826C24.0527 91.9316 23.4992 92.4738 23.1392 93.1387C21.9338 92.0736 20.8311 91.7216 19.8313 92.1199C18.1213 92.8146 17.8316 95.408 17.7849 96.5936L17 97.9089V98.2331C17 100.225 18.2802 101.623 19.4202 102.864C21.0554 104.643 21.7188 105.513 20.2424 107.375C15.4489 113.488 20.9339 118.962 25.3351 123.371C29.5587 127.586 31.3527 129.781 29.6054 131.745C24.7464 137.237 22.9056 141.424 23.9521 144.527C25.2136 148.241 30.1193 149.241 33.7075 149.973C34.9409 150.223 36.6322 150.566 37.006 150.872C45.5279 164.339 48.6863 165.015 53.4799 166.034C55.5263 166.47 57.8437 166.96 61.1609 168.767L61.3851 168.887L61.4692 169.035C61.8617 169.823 62.5905 171.295 65.3377 171.851C66.459 172.12 67.3935 171.369 68.3746 170.573C70.2434 169.082 71.5049 168.294 73.4392 170.017C76.3265 172.564 75.9715 173.861 75.7472 174.722C75.6164 175.213 75.4108 175.954 75.9341 176.621C76.6349 177.547 78.0085 177.64 83.5496 177.64C85.7642 177.64 87.3527 176.047 88.7544 174.648C89.9037 173.5 90.9876 172.407 92.1463 172.435C93.0808 172.462 94.2208 173.194 95.5289 174.63L95.5663 174.676C96.3326 175.436 97.295 174.945 98.3976 174.37C100.463 173.305 102.416 172.453 103.612 173.759C104.359 174.593 104.696 175.519 104.63 176.612C104.471 179.094 102.257 182.318 98.3883 185.689C98.1453 185.911 97.9024 186.115 97.8089 186.458C97.0801 188.505 97.0147 190.015 97.6127 191.2C98.3696 192.729 99.9861 193.229 101.416 193.673C103.714 194.377 104.911 194.877 104.733 197.489C104.668 198.305 105.097 199.203 106.069 200.305C108.517 203.084 115.058 207.53 116.834 207.632H116.881C119.805 207.669 121.179 207.502 121.627 206.409C122.039 205.39 121.207 204.631 120.543 204.02C120.263 203.76 119.6 203.149 119.562 202.889C119.525 202.241 119.637 201.834 119.899 201.685C121.254 200.889 126.094 202.982 129.804 205.363L130.103 205.548H130.448C130.785 205.548 131.13 205.548 133.98 203.686C135.382 202.769 136.13 202.223 136.541 201.889C139.886 201.945 140.54 202.695 140.54 204.029C140.54 206.317 141.091 207.845 142.222 208.706C143.876 209.947 146.137 209.336 148.128 208.79C149.866 208.308 151.118 208.021 151.407 208.586C153.445 212.439 155.08 214.106 156.874 214.143H156.939C158.948 214.143 160.191 212.032 161.396 209.975C162.499 208.104 163.751 205.992 165.274 205.9C170.544 205.576 171.731 204.066 171.955 201.732C171.965 201.583 171.983 201.37 172.012 201.269C172.174 201.214 172.344 201.182 172.516 201.176C184.85 200.185 188.429 196.563 194.942 189.996C196.092 188.829 197.4 187.514 198.848 186.106C201.754 183.309 203.175 177.455 202.287 175.862C202.548 174.687 203.072 173.586 203.819 172.638L203.866 172.583C207.099 168.609 205.389 165.108 204.258 162.783C203.399 161.032 203.231 160.467 203.679 160.041C205.417 158.411 204.501 154.123 202.212 146.796L201.792 145.425C201.521 144.573 200.614 143.702 199.241 142.387C196.82 140.072 193.167 136.57 193.391 132.847C193.531 130.67 194.998 128.521 197.764 126.456C201.53 123.659 202.679 122.186 202.156 120.824C201.502 119.166 199.1 119.389 195.11 119.74C192.083 120.018 187.514 120.417 186.233 119.25C186.075 119.111 185.916 118.907 185.916 118.472C185.916 113.322 188.7 109.996 191.307 108.607C192.597 107.922 193.438 107.922 193.671 108.014C193.671 108.079 193.671 108.227 193.578 108.477C192.924 110.256 190.962 115.646 194.073 116.98C195.269 117.49 197.568 117.656 203.754 113.238C206.183 111.506 209.865 108.496 210.164 107.922C211.668 104.958 211.696 104.254 211.566 103.531C211.706 103.04 212.752 101.336 214.668 98.4369C217.35 94.3892 221.77 92.3422 225.003 90.8417C227.871 89.5171 230.142 88.4612 230.086 86.4142C229.806 79.3655 230.404 77.5964 230.665 77.161C230.852 77.2536 231.132 77.4296 231.319 77.55C231.973 77.9761 232.871 78.5689 233.814 78.0502C234.786 77.5315 234.926 76.2533 234.926 74.9473C234.926 65.6385 236.917 63.6842 238.514 62.1003C239.729 60.8962 241 59.655 241 56.2835V55.6907L240.514 55.3387Z" fill="#E6E9EF"/>
<path d="M63.4768 88.4547C67.0875 88.4444 70.7646 89.1832 74.2138 90.7439C84.2462 95.2398 88.0209 104.272 91.0104 113.024C92.5032 117.414 94.1036 121.848 96.9442 125.742C101.241 131.632 107.927 134.24 115.284 135.49C125.836 137.27 125.557 150.32 123.395 157.076C122.25 160.615 119.814 164.033 115.429 164.703C110.201 165.513 104.474 161.53 100.407 158.689C89.4479 151.048 76.6871 146.144 64.1571 141.216C51.1966 136.114 34.41 130.935 36.2148 115.907C37.2775 107.035 41.4406 97.9394 49.407 92.5595C53.4142 89.9013 58.393 88.4309 63.4768 88.4547Z" fill="#CFD4DC"/>
<path d="M59.8681 95.1146C67.3575 93.7699 73.79 101.476 75.4779 107.948C77.5127 115.647 79.408 123.729 84.7916 129.881C90.4744 136.363 99.0547 140.2 107.765 140.002C109.178 139.969 110.607 139.822 112.01 140.075C119.163 141.356 114.145 149.943 111.011 152.842C108.045 155.563 103.909 157.604 99.9874 155.621C94.6897 152.988 93.6365 146.087 90.4544 141.678C90.0901 141.196 89.754 140.718 89.3576 140.26C85.3693 135.653 80.3538 132.024 74.9268 129.286C67.991 125.821 59.5499 124.706 53.8301 119.11C47.5526 112.977 47.9883 102.604 55.1443 97.2461C56.7427 96.0886 58.3027 95.4144 59.8681 95.1146Z" fill="#C0C7D0"/>
<path d="M119.672 185.6C120.35 187.72 121.49 189.715 122.722 191.149C126.45 195.514 131.81 198.319 137.201 198.631C142.5 198.943 147.798 195.825 153.066 197.322C157.102 198.475 159.72 201.873 164.156 201.998C173.059 202.216 208.917 184.54 192.96 153.335C187.815 143.296 183.04 132.417 181.315 120.913C180.175 113.275 181.161 106.791 183.256 99.5275C185.874 90.3311 175.462 90.1752 170.379 91.7651C159.104 95.2878 150.109 106.199 143.239 116.237C120.042 150.248 144.687 161.035 139.08 170.107C135.199 176.404 127.59 172.226 122.414 175.25C118.656 177.464 118.44 181.766 119.672 185.6Z" fill="#CFD4DC"/>
<path d="M172.793 105.048C173.473 106.511 173.04 108.361 172.824 109.912C171.711 118.267 170.474 126.801 172.082 135.156C172.762 138.677 174.03 142.138 176.194 144.973C179.625 149.449 186.18 150.374 188.282 156.043C191.837 165.651 181.418 177.169 173.999 181.465C165.404 186.478 155.109 188.746 145.339 189.611C142.495 189.85 138.26 190.626 135.694 188.955C131.613 186.299 135.91 180.182 138.105 177.706C145.216 169.679 158.572 163.025 159.283 150.911C159.468 147.539 158.262 144.436 156.346 141.78C154.645 139.423 152.079 137.215 151.244 134.35C149.76 129.367 153.192 123.936 155.48 119.759C157.675 115.761 160.643 111.941 163.704 108.599C165.775 106.332 171.371 102.005 172.793 105.048Z" fill="#C0C7D0"/>
<path d="M166.509 126.767C166.628 125.521 166.867 123.201 165.913 122.332C165.645 122.1 165.288 121.955 164.781 122.013C163.5 122.129 162.079 122.013 160.249 124.401C158.75 126.358 158.823 130.336 159.211 132.714C160.015 137.787 167.613 148.538 169.46 153.263C171.039 157.322 168.791 161.429 165.74 165.47C162.587 169.647 158.652 172.756 154.839 176.003C153.32 177.278 151.86 178.699 150.579 180.264C149.685 181.395 147.689 184.497 150.281 184.932C151.92 185.222 154.466 184.518 156.017 184.137C158.073 183.633 160.518 182.33 162.344 181.258C166.389 178.883 169.587 177.278 172.715 174.727C177.333 170.929 183.135 163.666 177.981 158.013C176.789 156.737 174.232 154.597 173.1 153.263C168.364 147.639 165.884 133.725 166.509 126.767Z" fill="#A3ADBD"/>
<path d="M96.0975 141.85C94.4831 142.583 97.8852 148.2 99.8736 149.264C103.353 151.126 106.17 150.074 108.022 148.277C108.989 147.339 110.696 144.409 109.341 142.631C108.376 141.365 107.876 142.606 104.029 142.423C101.376 142.296 97.3767 141.277 96.0975 141.85Z" fill="#A3ADBD"/>
<path d="M74.2898 121.777C74.2379 121.833 74.212 121.86 74.1594 121.889C71.9559 123.322 65.9498 119.532 64.1301 118.425C60.6819 116.368 56.9676 113.375 56.2112 109.198C55.1687 103.36 64.7031 100.513 67.6371 105.222C70.1515 109.243 70.819 114.069 73.4668 118.086L73.4677 118.088C73.9982 118.908 75.2794 120.889 74.2898 121.777Z" fill="#A3ADBD"/>
<path fill-rule="evenodd" clip-rule="evenodd" d="M208.242 196.73C208.37 195.389 208.545 194.211 208.627 192.788H208.662C208.662 191.073 209.537 190.735 209.537 189.277H209.583C209.583 187.749 211.1 184.95 212.359 183.842C212.546 183.585 214.237 183.282 214.657 183.41V183.469C217.713 183.9 215.753 185.696 215.753 187.026H215.707C215.707 188.915 216.453 191.645 215.952 193.371C215.952 194.117 215.229 194.736 215.229 195.295C214.809 195.914 213.362 196.112 213.362 197.162H213.316C212.628 198.993 213.491 200.194 211.928 202.014H211.881V201.967H211.823C211.823 201.407 210.633 200.789 210.54 199.996H210.493C209.385 198.678 208.685 198.305 208.242 196.73Z" fill="#E6E9EF"/>
</svg>
